<svg xmlns="http://www.w3.org/2000/svg" version="1.1" xmlns:xlink="http://www.w3.org/1999/xlink" xmlns:svgjs="http://svgjs.com/svgjs" width="64" height="64"><svg viewBox="0 0 64 64" xmlns="http://www.w3.org/2000/svg"><g id="SvgjsG1000"><path d="M61,27v2a2,2,0,0,1-2,2H58a2,2,0,0,0-2,2V55a6,6,0,0,1-6,6H14a6,6,0,0,1-6-6V33a2,2,0,0,0-2-2H5a2,2,0,0,1-2-2V27a2,2,0,0,1,2-2H59A2,2,0,0,1,61,27Z" style="fill:none;stroke:#0a1c28;stroke-linejoin:round;stroke-width:2px"></path><path d="M8,38c4.8,0,4.8,4,9.6,4s4.8-4,9.6-4,4.79,4,9.59,4,4.8-4,9.61-4,4.8,4,9.6,4" style="fill:none;stroke:#0a1c28;stroke-linejoin:round;stroke-width:2px"></path><circle cx="27" cy="46" r="2" style="fill:none;stroke:#0a1c28;stroke-linejoin:round;stroke-width:2px"></circle><circle cx="35" cy="52" r="1" style="fill:#0a1c28"></circle><circle cx="44" cy="48" r="3" style="fill:none;stroke:#0a1c28;stroke-miterlimit:10;stroke-width:2px"></circle><path d="M58.91,17.88c-.33-3.84-11.32-6-24.55-4.89S10.67,18.17,11,22l.08,1L59,18.87Z" style="fill:none;stroke:#0a1c28;stroke-linejoin:round;stroke-width:2px"></path><path d="M30.36,13.33a4,4,0,0,1,8-.68" style="fill:none;stroke:#0a1c28;stroke-linejoin:round;stroke-width:2px"></path><path d="M14,12a2,2,0,0,0,0-4,2,2,0,0,1-2-2A3,3,0,0,0,6,6a3,3,0,0,0,0,6,1,1,0,0,1,1,1l1,6" style="fill:none;stroke:#0a1c28;stroke-linecap:round;stroke-linejoin:round;stroke-width:2px"></path><circle cx="58" cy="9" r="2" style="fill:none;stroke:#0a1c28;stroke-linecap:round;stroke-linejoin:round;stroke-width:2px"></circle><circle cx="53" cy="4" r="1" style="fill:none;stroke:#0a1c28;stroke-linecap:round;stroke-linejoin:round;stroke-width:2px"></circle></g></svg><style>@media (prefers-color-scheme: light) { :root { filter: none; } }
</style></svg>